<?xml version="1.0" encoding="UTF-8" standalone="no"?>
<!-- Created with Inkscape (http://www.inkscape.org/) -->

<svg
   xmlns:dc="http://purl.org/dc/elements/1.1/"
   xmlns:cc="http://creativecommons.org/ns#"
   xmlns:rdf="http://www.w3.org/1999/02/22-rdf-syntax-ns#"
   xmlns:svg="http://www.w3.org/2000/svg"
   xmlns="http://www.w3.org/2000/svg"
   xmlns:sodipodi="http://sodipodi.sourceforge.net/DTD/sodipodi-0.dtd"
   xmlns:inkscape="http://www.inkscape.org/namespaces/inkscape"
   width="1150mm"
   height="300mm"
   viewBox="0 0 1150 300"
   version="1.1"
   id="svg8"
   inkscape:version="0.92.1 r15371"
   sodipodi:docname="Logo.Tracciato.svg"
   inkscape:export-filename="D:\DarkAngel\Google Drive\Documenti\Packt Publishing\ASP.NET Core and Angular - Second Edition\Graphics\www.testmakerfree.com\Logo.png"
   inkscape:export-xdpi="107"
   inkscape:export-ydpi="107">
  <defs
     id="defs2" />
  <sodipodi:namedview
     id="base"
     pagecolor="#ffffff"
     bordercolor="#666666"
     borderopacity="1.0"
     inkscape:pageopacity="0.0"
     inkscape:pageshadow="2"
     inkscape:zoom="0.24748737"
     inkscape:cx="2432.2758"
     inkscape:cy="499.97421"
     inkscape:document-units="mm"
     inkscape:current-layer="layer1"
     showgrid="false"
     inkscape:window-width="1920"
     inkscape:window-height="1027"
     inkscape:window-x="-8"
     inkscape:window-y="-4"
     inkscape:window-maximized="1" />
  <metadata
     id="metadata5">
    <rdf:RDF>
      <cc:Work
         rdf:about="">
        <dc:format>image/svg+xml</dc:format>
        <dc:type
           rdf:resource="http://purl.org/dc/dcmitype/StillImage" />
        <dc:title></dc:title>
      </cc:Work>
    </rdf:RDF>
  </metadata>
  <g
     inkscape:label="Layer 1"
     inkscape:groupmode="layer"
     id="layer1"
     transform="translate(0,3)">
    <g
       aria-label="AKEr"
       style="font-style:normal;font-variant:normal;font-weight:normal;font-stretch:normal;font-size:71.70136261px;line-height:125%;font-family:Musket;-inkscape-font-specification:Musket;letter-spacing:0px;word-spacing:0px;fill:#121212;fill-opacity:1;stroke:none;stroke-width:1.79253423px;stroke-linecap:butt;stroke-linejoin:miter;stroke-opacity:1"
       id="text6192-5-7-1-2">
      <path
         d="m 718.02226,160.46226 c 6.195,-12.21792 39.06291,-82.599972 39.75124,-86.902053 0.68833,-4.129999 3.61375,-5.506665 6.88333,-6.367081 3.95791,-0.860416 6.53916,1.376666 8.26,4.646248 8.94833,18.068743 44.56956,100.840796 45.94623,102.045376 1.89291,1.89292 10.32499,1.37667 11.01333,6.71125 0.68833,5.85083 -4.99042,6.71125 -7.57167,6.71125 -6.02291,-0.34417 -12.38999,0.34416 -18.58499,0 -3.95791,-0.34417 -8.77625,-0.68834 -9.12041,-3.95792 -0.34417,-2.92541 -0.34417,-5.33458 2.40916,-7.05541 2.40917,-1.37667 6.02292,-1.0325 6.88333,-2.40917 -3.95791,-11.87374 -9.98082,-24.26374 -14.79916,-36.82582 -1.37666,-3.78583 -3.95791,-5.1625 -7.74374,-5.1625 -9.2925,0 -18.585,-0.17208 -27.87749,-0.34416 -4.99042,-0.17209 -8.60417,1.54875 -11.01333,6.53916 l -17.20833,36.13749 c 0.86042,1.37666 4.99042,0.86041 7.39958,2.40916 2.92542,1.54875 2.92542,4.13 2.58125,6.88333 -0.51625,3.26959 -5.33458,3.78584 -9.12041,3.95792 -6.195,0.34417 -12.56208,-0.17208 -18.75708,0 -2.40916,0 -8.08791,-0.86042 -7.39958,-6.71125 0.51625,-5.1625 8.77625,-4.64625 10.49708,-6.53916 z m 62.63831,-42.1604 c -2.065,-7.39958 -6.02291,-16.52 -10.15291,-21.854579 -2.065,-2.925415 -5.33458,-3.269582 -7.74375,0.172084 -3.95791,5.678745 -9.46458,14.110825 -9.98083,22.026655 8.43208,0 19.10125,-0.34416 27.87749,-0.34416 z"
         style="font-style:normal;font-variant:normal;font-weight:normal;font-stretch:normal;font-size:172.08326721px;font-family:'White Pine';-inkscape-font-specification:'White Pine';fill:#121212;fill-opacity:1;stroke-width:1.79253423px"
         id="path5154" />
      <path
         d="m 868.2644,131.55227 c -0.68833,9.46458 -1.37666,16.86416 -1.89291,24.09166 -0.34417,5.33458 -0.34417,10.66916 -0.34417,16.00374 l 0.17209,2.92541 c 3.95791,0 12.21791,-0.34416 13.59457,6.02292 0.86042,3.78583 -1.20458,7.05541 -4.99041,6.88333 -9.63666,-0.34417 -17.03624,0.34417 -26.84499,0.17208 -1.54875,-0.17208 -4.81833,-0.17208 -5.85083,-2.58125 -3.26958,-8.43208 1.37666,-9.98083 11.01333,-10.49708 l 1.72083,-94.129543 c -3.95792,0 -12.21791,0.344167 -13.59458,-6.194997 -0.86041,-3.785832 1.20458,-6.883331 4.99042,-6.711248 9.63666,0.344167 17.03624,-0.516249 26.84499,-0.172083 1.54875,0 4.81833,0.172083 5.85083,2.409166 3.26958,8.43208 -1.37667,9.980829 -11.01333,10.669162 l 1.0325,28.737903 c 0.51625,0.17209 1.20458,0.51625 1.89291,0.86042 l 11.70167,-12.906246 c 3.95791,-4.474165 6.36708,-8.087913 10.49707,-12.389995 2.75334,-2.925415 4.81834,-5.334581 4.13,-9.808746 -0.51625,-5.162498 2.75334,-8.087914 7.74375,-8.087914 4.99042,0 9.98083,0.344167 14.97124,0.344167 4.47417,0.172083 7.74375,2.753332 7.74375,6.539164 0,3.613749 -3.44166,7.055414 -7.2275,7.055414 -11.01332,0.172083 -12.38999,3.613749 -16.86416,8.604163 -7.39958,8.604164 -13.59457,16.175823 -21.16624,24.607903 -1.89291,2.40917 -3.95791,4.81834 -6.02291,7.39959 l 36.30957,44.74164 c 4.47416,5.1625 5.67875,7.2275 16.86416,7.39959 3.78583,0 7.22749,3.44166 7.05541,7.05541 0,3.61375 -3.26958,6.36708 -7.74375,6.36708 -4.81833,0.17208 -9.80874,0.51625 -14.79916,0.51625 -4.99041,0 -12.38999,-3.0975 -11.70166,-8.08791 0.51625,-4.47417 -1.37666,-7.05542 -4.13,-9.80875 z"
         style="font-style:normal;font-variant:normal;font-weight:normal;font-stretch:normal;font-size:172.08326721px;font-family:'White Pine';-inkscape-font-specification:'White Pine';fill:#121212;fill-opacity:1;stroke-width:1.79253423px"
         id="path5156" />
      <path
         d="m 955.59936,173.3685 c 0.17208,-16.00374 0.68833,-31.31915 0.68833,-46.63456 0,-15.31541 -0.51625,-29.598326 -0.68833,-45.257903 -0.68833,-0.172083 -3.95791,-0.51625 -4.81833,-0.860416 -3.0975,-0.860417 -5.50667,-1.892916 -5.67875,-5.506665 -0.34417,-3.957915 1.89292,-6.194997 5.67875,-6.711247 3.95791,-0.860417 10.49708,-1.0325 14.45499,-1.0325 19.44541,-0.172083 38.89078,0 58.33628,0 6.1949,0 9.2924,-0.51625 12.3899,2.581249 1.7209,1.892916 2.4092,4.818332 2.7534,7.055414 0,8.776247 -2.9254,16.692077 -8.6042,17.208327 -0.8604,0 -3.7858,-1.54875 -5.3346,-4.129999 -1.2045,-2.237082 -0.172,-5.850831 -1.5487,-9.120413 -16.0038,-0.172083 -36.82583,0.51625 -53.86208,0.172084 0,14.799161 -1.20458,25.640409 -0.17208,40.783729 4.13,-0.17208 7.39958,-0.17208 11.01333,-0.17208 2.75333,0 5.67875,-0.17208 8.25999,0.68833 1.89292,0.68834 4.81834,3.61375 4.47417,4.81834 -0.51625,2.23708 -2.92542,5.16249 -4.99041,5.50666 -4.47417,1.0325 -9.2925,0.68833 -14.11083,1.0325 -1.20459,0 -2.40917,0.34417 -4.64625,0.68833 0,13.4225 0,25.81249 0.17208,39.23499 18.92916,-0.86042 36.13748,0.86041 54.20628,0.17208 0.3441,-3.0975 0.172,-6.36708 1.2045,-8.94833 0.8605,-1.89291 3.4417,-3.78583 5.3346,-4.13 1.5488,-0.17208 5.1625,2.40917 5.6788,3.95792 1.5487,5.50666 5.5066,13.25041 1.0325,19.27332 -2.7534,3.61375 -6.3671,3.26959 -11.5296,3.26959 -15.4875,-0.17209 -54.37833,1.0325 -71.75874,-0.34417 -5.33458,-0.34417 -8.60416,-1.89292 -8.60416,-5.67875 0,-6.02291 4.99041,-7.2275 10.66916,-7.91583 z"
         style="font-style:normal;font-variant:normal;font-weight:normal;font-stretch:normal;font-size:172.08326721px;font-family:'White Pine';-inkscape-font-specification:'White Pine';fill:#121212;fill-opacity:1;stroke-width:1.79253423px"
         id="path5158" />
      <path
         d="m 1118.1508,166.31309 c 4.4742,4.99041 5.8509,7.2275 16.8642,7.39958 3.7858,0 7.2275,3.44166 7.2275,7.05541 0,3.61375 -3.2696,6.36708 -7.7438,6.36708 l -14.7991,0.51625 c -5.1625,0 -12.39,-3.0975 -11.7017,-8.08791 0.5163,-4.47417 -1.5487,-7.05541 -4.3021,-9.80875 l -28.0495,-29.25415 c 0,10.49708 0.172,23.91957 0.172,34.24457 3.7859,0.51625 8.088,1.37666 8.4321,4.99041 0.5163,5.33458 -3.7858,7.91583 -8.6041,7.91583 -5.6788,-0.17208 -11.1855,-0.34416 -16.8642,-0.34416 -4.3021,-0.17209 -7.5717,-2.23709 -7.9158,-6.53917 0,-3.26958 1.3766,-5.50666 5.3346,-6.02291 0.8604,-0.17209 3.7858,0 6.0229,0 0.5162,-14.79916 -0.1721,-78.814138 0.5162,-94.473716 h -8.6041 c -3.4417,0.172083 -5.5067,-1.376666 -5.8509,-4.818331 -0.3441,-3.269582 1.5488,-5.334582 4.8184,-5.678748 18.9291,-2.581249 41.2999,-4.474165 59.3687,2.753332 16.8641,6.711248 19.7896,29.426243 6.0229,42.332483 -4.3021,4.13 -9.1204,7.57166 -14.2829,10.49708 -4.8183,2.75333 -10.325,4.30208 -16.6921,6.88333 2.7533,3.26958 5.1625,6.36708 7.9158,9.12041 z m -42.6766,-47.15082 c 13.0783,-0.17208 26.1566,-2.58125 34.5887,-12.90624 5.6788,-7.055416 5.8508,-17.724579 -1.7208,-21.854577 -10.6692,-6.022915 -30.8029,-5.162498 -33.04,-4.646249 z"
         style="font-style:normal;font-variant:normal;font-weight:normal;font-stretch:normal;font-size:172.08326721px;font-family:'White Pine';-inkscape-font-specification:'White Pine';fill:#121212;fill-opacity:1;stroke-width:1.79253423px"
         id="path5160" />
    </g>
    <flowRoot
       xml:space="preserve"
       id="flowRoot4728"
       style="font-style:normal;font-weight:normal;font-size:40px;line-height:125%;font-family:sans-serif;letter-spacing:0px;word-spacing:0px;fill:#000000;fill-opacity:1;stroke:none;stroke-width:1px;stroke-linecap:butt;stroke-linejoin:miter;stroke-opacity:1"><flowRegion
         id="flowRegion4730"><rect
           id="rect4732"
           width="2238.498"
           height="719.22864"
           x="-1527.3507"
           y="-4619.1875" /></flowRegion><flowPara
         id="flowPara4734" /></flowRoot>    <flowRoot
       xml:space="preserve"
       id="flowRoot5013"
       style="font-style:normal;font-weight:normal;font-size:40px;line-height:125%;font-family:sans-serif;letter-spacing:0px;word-spacing:0px;fill:#000000;fill-opacity:1;stroke:none;stroke-width:1px;stroke-linecap:butt;stroke-linejoin:miter;stroke-opacity:1"
       transform="scale(0.26458333)"><flowRegion
         id="flowRegion5015"><rect
           id="rect5017"
           width="1388.5714"
           height="182.85715"
           x="708.57141"
           y="-277.48032" /></flowRegion><flowPara
         id="flowPara5019" /></flowRoot>    <path
       id="path5174-19"
       d="m 385.38139,247.7404 h -27.42178 c -4.54338,0 -8.2266,-3.68322 -8.2266,-8.2266 v -27.42179 c 0,-4.54337 3.68322,-8.2266 8.2266,-8.2266 h 27.42178 c 4.54338,0 8.2266,3.68323 8.2266,8.2266 v 27.42179 c 0,4.54338 -3.68322,8.2266 -8.2266,8.2266 z"
       style="fill:#d7deed;stroke-width:0.31063697"
       inkscape:connector-curvature="0" />
    <g
       aria-label="C"
       style="font-style:normal;font-variant:normal;font-weight:normal;font-stretch:normal;font-size:20.75368881px;line-height:125%;font-family:'White Pine';-inkscape-font-specification:'White Pine';letter-spacing:0px;word-spacing:0px;fill:#5b5d6e;fill-opacity:1;stroke:none;stroke-width:0.51884222px;stroke-linecap:butt;stroke-linejoin:miter;stroke-opacity:1"
       id="text4545-2-0">
      <path
         d="m 380.26929,209.65391 c 0.5977,-0.44828 0.94637,-0.94637 1.44445,-1.24522 1.39465,-0.69733 2.63987,0 2.68968,1.54407 0.0498,1.34484 -0.0498,2.68968 -0.0996,4.08433 0,1.24522 -0.89656,1.99235 -1.94254,2.19159 -0.44828,0.0996 -1.24522,-0.64752 -1.64369,-1.24522 -1.79312,-2.63987 -6.87363,-3.63605 -10.36025,-1.89274 -3.13795,1.54407 -5.18012,4.13413 -6.82381,7.07286 -1.6935,2.93872 -2.14178,6.12649 -1.6935,9.36406 0.24904,2.09197 1.59388,4.88127 3.33719,6.22611 2.68968,2.04216 4.38318,3.18777 7.91961,3.43681 1.59388,0.0996 3.98471,-0.74713 5.13031,-1.79312 1.29503,-1.24522 2.63987,-2.44063 4.18395,-3.83528 1.29503,-0.0498 1.64369,1.04599 1.6935,2.29121 0.0498,1.19541 -0.0498,2.34101 0.0996,3.48662 0.14942,1.1456 0.14942,2.19159 -0.94637,2.88891 -1.34484,0.89656 -1.79312,-0.64751 -2.73949,-1.19541 -2.73949,1.99235 -6.32572,2.59006 -10.01158,1.89274 -4.58241,-0.89656 -7.77018,-2.88892 -10.41005,-6.7242 -2.2414,-3.28739 -2.73949,-7.81999 -1.94255,-11.75489 1.24523,-6.7242 4.43299,-11.70508 10.36025,-14.94266 3.68585,-1.99235 7.9196,-1.39465 11.75489,0.14943 z"
         style="font-style:normal;font-variant:normal;font-weight:normal;font-stretch:normal;font-size:49.80885696px;font-family:'White Pine';-inkscape-font-specification:'White Pine';fill:#5b5d6e;fill-opacity:1;stroke-width:0.51884222px"
         id="path5151" />
    </g>
    <g
       transform="matrix(1.174061,0,0,1.174061,674.26413,185.08119)"
       id="g5979-7-0">
      <path
         inkscape:connector-curvature="0"
         style="fill:#d7deed;stroke-width:0.26458332"
         d="m -330.55986,30.013301 h -46.71245 c -1.2909,0 -2.33574,-1.04589 -2.33574,-2.33574 0,-1.28984 1.04457,-2.33574 2.33574,-2.33574 h 46.71272 c 1.2909,0 2.33574,1.0459 2.33574,2.33574 0,1.28985 -1.04484,2.33574 -2.33601,2.33574 z"
         id="path5194-3-0-1" />
      <g
         transform="matrix(0.26458333,0,0,0.26458333,-379.60805,-33.048809)"
         id="g5204-1-5-6">
        <path
           id="path5198-9-1-5"
           d="M 317.793,238.345 H 220.69 c -4.879,0 -8.828,-3.953 -8.828,-8.828 0,-4.875 3.948,-8.828 8.828,-8.828 h 97.103 c 4.879,0 8.828,3.953 8.828,8.828 0,4.875 -3.948,8.828 -8.828,8.828 z"
           style="fill:#c7cfe2"
           inkscape:connector-curvature="0" />
        <path
           id="path5200-5-2-4"
           d="m 317.793,291.31 h -35.31 c -4.879,0 -8.828,-3.953 -8.828,-8.828 0,-4.875 3.948,-8.828 8.828,-8.828 h 35.31 c 4.879,0 8.828,3.953 8.828,8.828 0,4.875 -3.948,8.828 -8.828,8.828 z"
           style="fill:#c7cfe2"
           inkscape:connector-curvature="0" />
        <path
           id="path5202-8-6-8"
           d="M 79.448,291.31 H 8.828 C 3.949,291.31 0,287.357 0,282.482 c 0,-4.875 3.948,-8.828 8.828,-8.828 h 70.621 c 4.879,0 8.828,3.953 8.828,8.828 0,4.875 -3.949,8.828 -8.829,8.828 z"
           style="fill:#c7cfe2"
           inkscape:connector-curvature="0" />
      </g>
      <path
         inkscape:connector-curvature="0"
         style="fill:#d7deed;stroke-width:0.26458332"
         d="m -314.21046,44.026961 h -35.03427 c -1.2909,0 -2.33574,-1.0459 -2.33574,-2.33574 0,-1.28985 1.04457,-2.33574 2.33574,-2.33574 h 35.03454 c 1.2909,0 2.33574,1.04589 2.33574,2.33574 0,1.28984 -1.04484,2.33574 -2.33601,2.33574 z"
         id="path5206-0-1-5" />
    </g>
    <g
       aria-label="test"
       style="font-style:normal;font-variant:normal;font-weight:normal;font-stretch:normal;font-size:71.70136261px;line-height:125%;font-family:Musket;-inkscape-font-specification:Musket;letter-spacing:0px;word-spacing:0px;fill:#121212;fill-opacity:1;stroke:none;stroke-width:1.79253423px;stroke-linecap:butt;stroke-linejoin:miter;stroke-opacity:1"
       id="text6192-5-7-9">
      <path
         d="m 111.48637,71.590245 c -0.17208,-4.990415 -8.60416,-7.571664 -13.078328,-4.818332 -1.892916,1.204583 -4.474165,1.892916 -6.711247,1.892916 H 31.295568 c -2.064999,0 -4.646248,-0.688333 -6.711247,-1.892916 -4.474165,-2.753332 -12.906245,-0.172083 -13.078329,4.818332 -0.172083,5.678748 0.51625,9.808746 1.720833,15.31541 0.688333,3.441666 6.711248,4.818332 8.94833,1.720833 1.548749,-2.064999 2.409166,-4.474165 3.613749,-6.883331 9.980829,0 19.273326,0 29.426238,0 l -0.516249,92.924963 c -2.409166,0 -3.097499,-0.17208 -3.957916,0 -4.129998,0.51625 -5.334581,3.44167 -5.334581,6.71125 0.344167,4.30208 3.269582,5.67875 7.571664,5.85083 5.678748,0 9.46458,0.17208 15.143327,0.34417 4.818332,0 9.636663,-0.86042 9.292497,-7.91583 -0.344167,-4.99042 -5.334582,-4.47417 -9.120413,-4.99042 0,-9.98083 -0.344167,-88.794964 -0.344167,-92.924963 H 97.20346 c 1.376666,2.409166 2.237082,4.818332 3.61375,6.883331 2.23708,3.097499 8.43208,1.720833 9.12041,-1.720833 1.20458,-5.506664 1.72083,-9.636662 1.54875,-15.31541 z"
         style="font-style:normal;font-variant:normal;font-weight:normal;font-stretch:normal;font-size:172.08326721px;font-family:'White Pine';-inkscape-font-specification:'White Pine';fill:#121212;fill-opacity:1;stroke-width:1.79253423px"
         id="path5142" />
      <path
         d="m 134.0965,173.63562 c 0.17208,-16.00374 0.68833,-31.31915 0.68833,-46.63456 0,-15.31541 -0.51625,-29.598325 -0.68833,-45.257903 -0.68834,-0.172083 -3.95792,-0.516249 -4.81834,-0.860416 -3.09749,-0.860416 -5.50666,-1.892916 -5.67874,-5.506664 -0.34417,-3.957916 1.89291,-6.194998 5.67874,-6.711248 3.95792,-0.860416 10.49708,-1.032499 14.455,-1.032499 19.44541,-0.172084 38.89082,0 58.33623,0 6.19499,0 9.29249,-0.51625 12.38999,2.581249 1.72083,1.892915 2.40917,4.818331 2.75333,7.055414 0,8.776246 -2.92541,16.692076 -8.60416,17.208326 -0.86042,0 -3.78583,-1.548749 -5.33458,-4.129998 -1.20458,-2.237083 -0.17208,-5.850831 -1.54875,-9.120413 -16.00374,-0.172084 -36.82582,0.516249 -53.86206,0.172083 0,14.799161 -1.20459,25.640409 -0.17209,40.783739 4.13,-0.17209 7.39958,-0.17209 11.01333,-0.17209 2.75334,0 5.67875,-0.17208 8.26,0.68834 1.89292,0.68833 4.81833,3.61374 4.47416,4.81833 -0.51624,2.23708 -2.92541,5.16249 -4.99041,5.50666 -4.47416,1.0325 -9.2925,0.68833 -14.11083,1.0325 -1.20458,0 -2.40916,0.34417 -4.64625,0.68833 0,13.4225 0,25.81249 0.17209,39.23499 18.92916,-0.86042 36.13748,0.86042 54.20623,0.17208 0.34416,-3.0975 0.17208,-6.36708 1.20458,-8.94833 0.86042,-1.89291 3.44166,-3.78583 5.33458,-4.13 1.54875,-0.17208 5.1625,2.40917 5.67875,3.95792 1.54875,5.50666 5.50666,13.25041 1.0325,19.27332 -2.75333,3.61375 -6.36708,3.26959 -11.52958,3.26959 -15.48749,-0.17209 -54.37831,1.0325 -71.75872,-0.34417 -5.33458,-0.34417 -8.60417,-1.89292 -8.60417,-5.67875 0,-6.02291 4.99042,-7.22749 10.66917,-7.91583 z"
         style="font-style:normal;font-variant:normal;font-weight:normal;font-stretch:normal;font-size:172.08326721px;font-family:'White Pine';-inkscape-font-specification:'White Pine';fill:#121212;fill-opacity:1;stroke-width:1.79253423px"
         id="path5144" />
      <path
         d="m 254.83173,186.88603 c -1.89292,1.54875 -3.61375,3.61375 -5.67875,4.47417 -4.47416,2.065 -9.46458,-0.68833 -9.80875,-5.50667 -0.51625,-9.12041 -0.86041,-18.41291 -0.86041,-27.7054 0,-3.26958 1.89291,-5.85083 5.67875,-6.02292 3.61374,-0.34416 4.81833,2.065 5.16249,4.99042 0.51625,6.53916 2.58125,12.04583 9.12042,14.97124 7.39958,3.44167 15.31541,3.95792 23.05915,1.54875 7.05542,-2.065 11.70167,-10.15291 11.52958,-18.92916 -0.17208,-7.91583 -3.26958,-12.21791 -11.52958,-14.79916 -6.88333,-2.065 -13.93874,-3.78583 -20.82207,-5.33458 -13.25041,-2.75333 -24.95207,-18.06874 -17.55249,-35.277069 6.19499,-14.282911 16.69207,-22.542908 30.8029,-26.32874 6.195,-1.54875 13.4225,-0.172083 20.82208,-0.172083 0.68833,-0.688334 1.89291,-2.581249 3.44166,-3.613749 4.99042,-3.269582 9.63666,-1.204583 10.325,4.646248 0.68833,5.162498 1.0325,10.324996 0.68833,15.487494 -0.34417,8.604164 -3.78583,17.036239 -11.35749,11.701659 -1.0325,-0.68833 -1.54875,-2.064996 -1.89292,-3.269579 -2.75333,-9.808746 -12.21791,-15.487494 -21.85458,-12.562078 -9.80874,2.925415 -16.51999,9.464579 -19.96165,19.273327 -2.40917,7.2275 0,12.73416 6.88333,16.17583 2.065,1.0325 4.47416,1.89291 6.71124,2.58124 7.2275,1.89292 14.455,4.30209 21.85458,5.50667 9.63666,1.37667 13.07833,8.26 15.31541,15.83166 2.75333,9.63666 1.20458,19.10124 -3.0975,28.04957 -6.195,12.39 -17.20833,16.00375 -29.94249,16.17583 -5.33458,0.17208 -10.84124,-1.20458 -17.03624,-1.89292 z"
         style="font-style:normal;font-variant:normal;font-weight:normal;font-stretch:normal;font-size:172.08326721px;font-family:'White Pine';-inkscape-font-specification:'White Pine';fill:#121212;fill-opacity:1;stroke-width:1.79253423px"
         id="path5146" />
      <path
         d="m 429.77317,71.590245 c -0.17208,-4.990415 -8.60416,-7.571664 -13.07832,-4.818332 -1.89292,1.204583 -4.47417,1.892916 -6.71125,1.892916 h -60.40123 c -2.065,0 -4.64625,-0.688333 -6.71125,-1.892916 -4.47416,-2.753332 -12.90624,-0.172083 -13.07832,4.818332 -0.17209,5.678748 0.51625,9.808746 1.72083,15.31541 0.68833,3.441666 6.71125,4.818332 8.94833,1.720833 1.54875,-2.064999 2.40916,-4.474165 3.61375,-6.883331 9.98083,0 19.27332,0 29.42624,0 l -0.51625,92.924963 c -2.40917,0 -3.0975,-0.17208 -3.95792,0 -4.13,0.51625 -5.33458,3.44167 -5.33458,6.71125 0.34417,4.30208 3.26958,5.67875 7.57166,5.85083 5.67875,0 9.46458,0.17208 15.14333,0.34417 4.81833,0 9.63666,-0.86042 9.2925,-7.91583 -0.34417,-4.99042 -5.33458,-4.47417 -9.12042,-4.99042 0,-9.98083 -0.34416,-88.794964 -0.34416,-92.924963 h 29.25415 c 1.37667,2.409166 2.23709,4.818332 3.61375,6.883331 2.23708,3.097499 8.43208,1.720833 9.12042,-1.720833 1.20458,-5.506664 1.72083,-9.636662 1.54874,-15.31541 z"
         style="font-style:normal;font-variant:normal;font-weight:normal;font-stretch:normal;font-size:172.08326721px;font-family:'White Pine';-inkscape-font-specification:'White Pine';fill:#121212;fill-opacity:1;stroke-width:1.79253423px"
         id="path5148" />
    </g>
    <g
       aria-label="M"
       style="font-style:normal;font-variant:normal;font-weight:normal;font-stretch:normal;font-size:136.41639709px;line-height:125%;font-family:Musket;-inkscape-font-specification:Musket;letter-spacing:0px;word-spacing:0px;fill:#9e0000;fill-opacity:1;stroke:none;stroke-width:3.41041017px;stroke-linecap:butt;stroke-linejoin:miter;stroke-opacity:1"
       id="text6192-5-7-2-3">
      <path
         d="m 671.92483,34.301021 c 0,61.223674 -0.9822,113.607569 -0.9822,175.158639 7.20278,0.3274 13.42337,0.6548 19.64396,0.6548 8.51238,0.3274 11.13157,5.89319 11.78637,13.09597 0.6548,7.85758 -3.27399,12.76857 -11.13157,12.76857 -18.00697,0 -36.01393,-0.3274 -53.69349,-0.98219 -7.20279,-0.3274 -11.78638,-5.89319 -11.13158,-11.78638 0.3274,-4.25619 4.91099,-8.83978 8.51238,-12.11377 2.2918,-1.9644 6.87539,-1.637 11.13158,-2.2918 l 3.60139,-127.030937 c -6.54798,10.476778 -11.45897,18.006963 -15.71516,25.209747 -15.38777,25.86455 -31.10294,51.40169 -46.16331,76.93884 -5.23839,9.16718 -12.44117,12.11378 -18.66176,11.13158 -11.78638,-17.67956 -21.60836,-33.06733 -31.75773,-48.1277 -17.67957,-25.86455 -35.35913,-51.074296 -54.34829,-78.575839 -4.25619,48.127699 0.3274,92.326609 -3.6014,140.126909 4.91099,0.6548 9.49459,0.9822 13.75078,2.2918 7.20278,1.63699 12.11377,6.22058 11.45897,13.75077 -0.9822,7.85758 -6.87538,11.78637 -14.07817,11.45897 -16.69736,-0.98219 -36.66872,0 -53.03869,-2.29179 -3.27399,-0.3274 -10.14938,-2.2918 -10.14938,-10.47678 0,-10.47678 2.9466,-11.45898 6.22059,-13.75077 3.60139,-2.6192 16.04257,0.3274 22.26315,-0.9822 3.9288,-56.64008 0.3274,-113.280165 0.9822,-173.849039 -1.96439,-0.3274 -6.54798,-0.3274 -10.14938,-0.654799 -11.13157,-0.982198 -18.98916,-2.619195 -19.31656,-15.715168 0,-8.184983 10.47678,-10.8041772 18.66176,-10.8041772 4.58359,0 16.04257,0.6547986 20.95356,0.6547986 8.51238,-0.3273993 12.76857,0 15.38777,1.9643956 2.61919,2.291796 16.04257,33.067332 22.91795,43.54411 22.26316,33.72213 45.18111,67.116859 69.08126,102.148589 4.25619,-4.58359 59.58668,-93.963606 76.28404,-137.507716 4.25619,-11.1315765 7.85758,-12.1137745 20.95356,-10.1493786 4.58359,0.6547987 9.49458,0.6547987 14.07817,0.6547987 11.45897,0.3273993 16.36996,3.6013929 16.69736,11.4589759 0.3274,9.167181 -4.58359,13.095973 -16.69736,13.750772 -3.60139,0.327399 -7.20279,0.327399 -13.75077,0.327399 z"
         style="font-style:normal;font-variant:normal;font-weight:normal;font-stretch:normal;font-size:327.39932251px;font-family:'White Pine';-inkscape-font-specification:'White Pine';fill:#9e0000;fill-opacity:1;stroke-width:3.41041017px"
         id="path5139" />
    </g>
    <path
       inkscape:connector-curvature="0"
       style="fill:#d7deed;fill-opacity:1;stroke-width:0.31063697"
       d="M 403.11079,49.711082 H 375.689 c -4.54337,0 -8.2266,-3.683229 -8.2266,-8.226599 V 14.062997 c 0,-4.5433693 3.68323,-8.2265983 8.2266,-8.2265983 h 27.42179 c 4.54338,0 8.2266,3.683229 8.2266,8.2265983 v 27.421792 c 0,4.543381 -3.68322,8.226293 -8.2266,8.226293 z"
       id="path5170-97-4" />
    <g
       aria-label="A"
       style="font-style:normal;font-variant:normal;font-weight:normal;font-stretch:normal;font-size:20.75368881px;line-height:125%;font-family:'White Pine';-inkscape-font-specification:'White Pine';letter-spacing:0px;word-spacing:0px;fill:#5b5d6e;fill-opacity:1;stroke:none;stroke-width:0.51884222px;stroke-linecap:butt;stroke-linejoin:miter;stroke-opacity:1"
       id="text4545">
      <path
         d="m 375.48297,37.016172 c 1.79311,-3.536429 11.30661,-23.908252 11.50584,-25.153473 0.19924,-1.195413 1.04599,-1.593884 1.99236,-1.842928 1.1456,-0.2490441 1.89273,0.398471 2.39082,1.344839 2.59006,5.22993 12.90049,29.187991 13.29897,29.536653 0.54789,0.547897 2.98853,0.39847 3.18776,1.942545 0.19924,1.693501 -1.44445,1.942545 -2.19159,1.942545 -1.74331,-0.09962 -3.58623,0.09962 -5.37935,0 -1.14561,-0.09962 -2.54026,-0.199235 -2.63987,-1.145603 -0.0996,-0.846751 -0.0996,-1.544075 0.69732,-2.042163 0.69732,-0.398471 1.74331,-0.298854 1.99236,-0.697324 -1.14561,-3.436812 -2.88892,-7.023049 -4.28357,-10.659096 -0.39847,-1.095795 -1.1456,-1.494266 -2.2414,-1.494266 -2.68967,0 -5.37935,-0.04981 -8.06903,-0.09962 -1.44446,-0.04981 -2.49044,0.448279 -3.18777,1.892736 l -4.98088,10.45986 c 0.24904,0.398471 1.44445,0.249045 2.14178,0.697324 0.84675,0.44828 0.84675,1.195413 0.74713,1.992355 -0.14943,0.946368 -1.54407,1.095794 -2.63987,1.145603 -1.79312,0.09962 -3.63604,-0.04981 -5.42916,0 -0.69733,0 -2.34102,-0.249044 -2.14178,-1.942545 0.14942,-1.494266 2.54025,-1.344839 3.03834,-1.892737 z m 18.13042,-12.20317 c -0.59771,-2.141781 -1.74331,-4.781651 -2.93872,-6.325725 -0.59771,-0.846751 -1.54408,-0.946368 -2.2414,0.04981 -1.14561,1.643692 -2.73949,4.084326 -2.88892,6.375533 2.44064,0 5.52879,-0.09962 8.06904,-0.09962 z"
         style="font-style:normal;font-variant:normal;font-weight:normal;font-stretch:normal;font-size:49.80885696px;font-family:'White Pine';-inkscape-font-specification:'White Pine';fill:#5b5d6e;fill-opacity:1;stroke-width:0.51884222px"
         id="path5136" />
    </g>
    <g
       transform="matrix(1.174061,0,0,1.174061,691.26541,-12.947838)"
       id="g5979-7-3-8"
       style="fill:#d7deed;fill-opacity:1">
      <path
         inkscape:connector-curvature="0"
         style="fill:#d7deed;fill-opacity:1;stroke-width:0.26458332"
         d="m -330.55986,30.013301 h -46.71245 c -1.2909,0 -2.33574,-1.04589 -2.33574,-2.33574 0,-1.28984 1.04457,-2.33574 2.33574,-2.33574 h 46.71272 c 1.2909,0 2.33574,1.0459 2.33574,2.33574 0,1.28985 -1.04484,2.33574 -2.33601,2.33574 z"
         id="path5194-3-0-84-7" />
      <g
         transform="matrix(0.26458333,0,0,0.26458333,-379.60805,-33.048809)"
         id="g5204-1-5-2-4"
         style="fill:#d7deed;fill-opacity:1">
        <path
           id="path5198-9-1-2-4"
           d="M 317.793,238.345 H 220.69 c -4.879,0 -8.828,-3.953 -8.828,-8.828 0,-4.875 3.948,-8.828 8.828,-8.828 h 97.103 c 4.879,0 8.828,3.953 8.828,8.828 0,4.875 -3.948,8.828 -8.828,8.828 z"
           style="fill:#d7deed;fill-opacity:1"
           inkscape:connector-curvature="0" />
        <path
           id="path5200-5-2-2-7"
           d="m 317.793,291.31 h -35.31 c -4.879,0 -8.828,-3.953 -8.828,-8.828 0,-4.875 3.948,-8.828 8.828,-8.828 h 35.31 c 4.879,0 8.828,3.953 8.828,8.828 0,4.875 -3.948,8.828 -8.828,8.828 z"
           style="fill:#d7deed;fill-opacity:1"
           inkscape:connector-curvature="0" />
        <path
           id="path5202-8-6-6-8"
           d="M 79.448,291.31 H 8.828 C 3.949,291.31 0,287.357 0,282.482 c 0,-4.875 3.948,-8.828 8.828,-8.828 h 70.621 c 4.879,0 8.828,3.953 8.828,8.828 0,4.875 -3.949,8.828 -8.829,8.828 z"
           style="fill:#d7deed;fill-opacity:1"
           inkscape:connector-curvature="0" />
      </g>
      <path
         inkscape:connector-curvature="0"
         style="fill:#d7deed;fill-opacity:1;stroke-width:0.26458332"
         d="m -314.21046,44.026961 h -35.03427 c -1.2909,0 -2.33574,-1.0459 -2.33574,-2.33574 0,-1.28985 1.04457,-2.33574 2.33574,-2.33574 h 35.03454 c 1.2909,0 2.33574,1.04589 2.33574,2.33574 0,1.28984 -1.04484,2.33574 -2.33601,2.33574 z"
         id="path5206-0-1-2-6" />
    </g>
    <path
       id="path5174-0-6"
       d="m 726.85086,50.162108 h 27.42178 c 4.54338,0 8.2266,-3.683223 8.2266,-8.2266 V 14.513719 c 0,-4.5433755 -3.68322,-8.2265985 -8.2266,-8.2265985 h -27.42178 c -4.54338,0 -8.2266,3.683223 -8.2266,8.2265985 v 27.421789 c 0,4.543377 3.68322,8.2266 8.2266,8.2266 z"
       style="fill:#d7deed;stroke-width:0.31063697"
       inkscape:connector-curvature="0" />
    <g
       aria-label="B"
       style="font-style:normal;font-variant:normal;font-weight:normal;font-stretch:normal;font-size:20.75368881px;line-height:125%;font-family:'White Pine';-inkscape-font-specification:'White Pine';letter-spacing:0px;word-spacing:0px;fill:#5b5d6e;fill-opacity:1;stroke:none;stroke-width:0.51884222px;stroke-linecap:butt;stroke-linejoin:miter;stroke-opacity:1"
       id="text4545-2">
      <path
         d="m 744.50713,25.9014 c 0.69733,0.199236 1.44446,0.44828 2.19159,0.647516 4.53261,1.095794 6.87363,4.482797 6.27592,9.11502 -0.29885,2.440634 -1.39465,4.333371 -3.33719,5.777828 -5.22993,3.984708 -11.10738,4.532606 -17.33349,3.337193 -0.5977,-0.149426 -1.19541,-0.298853 -1.79311,-0.498088 -0.89656,-0.249045 -1.69351,-0.796942 -1.54408,-1.842928 0.0996,-0.996177 0.64752,-1.793119 1.79312,-1.892737 0.5479,-0.04981 1.04599,-0.04981 1.79312,-0.09962 0.14943,-8.616933 0.29885,-17.084438 0.49809,-25.502135 -1.99236,-0.747133 -3.58624,1.145604 -5.27974,-0.04981 -0.14943,-1.444457 0.5977,-2.440634 1.89274,-2.739487 4.18394,-1.045986 8.36788,-2.091972 12.80087,-1.29503 5.18012,0.896559 6.57477,2.639869 5.18012,8.069035 -0.5977,2.341016 -1.94254,4.432988 -3.13796,6.973239 z m -8.21846,-0.298853 c 0.34867,0.09962 0.49809,0.249045 0.64752,0.199236 3.63604,-0.647515 7.67056,-5.080504 7.81999,-8.616932 0.0498,-1.145604 -0.0996,-2.341017 -1.44446,-2.839105 -2.34101,-0.89656 -4.73184,-1.095795 -7.02305,-0.498089 z m -0.14942,15.540364 c 4.38318,1.195412 7.8698,-0.398471 11.05756,-2.341017 2.88892,-1.793118 2.7893,-6.873622 -0.0498,-8.168652 -2.88891,-1.344839 -5.92725,-2.19159 -9.16483,-1.195413 -1.34483,0.44828 -1.89273,0.946369 -1.89273,2.341017 0.0996,3.088149 0.0498,6.126489 0.0498,9.364065 z"
         style="font-style:normal;font-variant:normal;font-weight:normal;font-stretch:normal;font-size:49.80885696px;font-family:'White Pine';-inkscape-font-specification:'White Pine';fill:#5b5d6e;fill-opacity:1;stroke-width:0.51884222px"
         id="path5133" />
    </g>
    <g
       transform="matrix(-1.174061,0,0,1.174061,440.36814,-12.418681)"
       id="g5979-7-3-2-2">
      <path
         inkscape:connector-curvature="0"
         style="fill:#d7deed;stroke-width:0.26458332"
         d="m -330.55986,30.013301 h -46.71245 c -1.2909,0 -2.33574,-1.04589 -2.33574,-2.33574 0,-1.28984 1.04457,-2.33574 2.33574,-2.33574 h 46.71272 c 1.2909,0 2.33574,1.0459 2.33574,2.33574 0,1.28985 -1.04484,2.33574 -2.33601,2.33574 z"
         id="path5194-3-0-84-5-2" />
      <g
         transform="matrix(0.26458333,0,0,0.26458333,-379.60805,-33.048809)"
         id="g5204-1-5-2-6-4">
        <path
           id="path5198-9-1-2-8-4"
           d="M 317.793,238.345 H 220.69 c -4.879,0 -8.828,-3.953 -8.828,-8.828 0,-4.875 3.948,-8.828 8.828,-8.828 h 97.103 c 4.879,0 8.828,3.953 8.828,8.828 0,4.875 -3.948,8.828 -8.828,8.828 z"
           style="fill:#c7cfe2"
           inkscape:connector-curvature="0" />
        <path
           id="path5200-5-2-2-2-7"
           d="m 317.793,291.31 h -35.31 c -4.879,0 -8.828,-3.953 -8.828,-8.828 0,-4.875 3.948,-8.828 8.828,-8.828 h 35.31 c 4.879,0 8.828,3.953 8.828,8.828 0,4.875 -3.948,8.828 -8.828,8.828 z"
           style="fill:#c7cfe2"
           inkscape:connector-curvature="0" />
        <path
           id="path5202-8-6-6-3-7"
           d="M 79.448,291.31 H 8.828 C 3.949,291.31 0,287.357 0,282.482 c 0,-4.875 3.948,-8.828 8.828,-8.828 h 70.621 c 4.879,0 8.828,3.953 8.828,8.828 0,4.875 -3.949,8.828 -8.829,8.828 z"
           style="fill:#c7cfe2"
           inkscape:connector-curvature="0" />
      </g>
      <path
         inkscape:connector-curvature="0"
         style="fill:#d7deed;stroke-width:0.26458332"
         d="m -314.21046,44.026961 h -35.03427 c -1.2909,0 -2.33574,-1.0459 -2.33574,-2.33574 0,-1.28985 1.04457,-2.33574 2.33574,-2.33574 h 35.03454 c 1.2909,0 2.33574,1.04589 2.33574,2.33574 0,1.28984 -1.04484,2.33574 -2.33601,2.33574 z"
         id="path5206-0-1-2-1-2" />
    </g>
    <path
       inkscape:connector-curvature="0"
       style="fill:#d7deed;fill-opacity:1;stroke-width:0.31063697"
       d="m 776.94416,248.85383 h -27.42179 c -4.54337,0 -8.2266,-3.68323 -8.2266,-8.2266 v -27.42148 c 0,-4.54337 3.68323,-8.2266 8.2266,-8.2266 h 27.42179 c 4.54338,0 8.2266,3.68323 8.2266,8.2266 v 27.42179 c 0,4.54338 -3.68322,8.22629 -8.2266,8.22629 z"
       id="path5170-97-4-4" />
    <g
       aria-label="D"
       style="font-style:normal;font-variant:normal;font-weight:normal;font-stretch:normal;font-size:20.75368881px;line-height:125%;font-family:'White Pine';-inkscape-font-specification:'White Pine';letter-spacing:0px;word-spacing:0px;fill:#5b5d6e;fill-opacity:1;stroke:none;stroke-width:0.51884222px;stroke-linecap:butt;stroke-linejoin:miter;stroke-opacity:1"
       id="text4545-2-0-5">
      <path
         d="m 755.17287,240.0591 c 0,-9.21464 0,-18.13042 0.0498,-27.19564 -1.24522,0.0498 -2.14178,0.14943 -3.03834,0.0498 -0.94637,-0.0498 -1.84293,-0.29885 -1.74331,-1.59388 0.0996,-1.1456 0.5479,-1.94255 1.79312,-1.99236 3.63604,0 7.27209,-0.14942 10.90814,0.0498 6.72419,0.29886 12.75106,6.37554 13.29896,13.29897 0.69733,9.11502 -3.98471,16.93501 -13.34877,20.32201 -3.03834,1.0958 -6.87362,1.0958 -10.06139,0.99618 -0.44828,0 -1.04599,0 -1.29503,-0.29885 -0.49809,-0.59771 -1.19541,-1.34484 -1.0958,-1.99236 0.0498,-0.5479 0.89656,-1.24522 1.59389,-1.49426 0.79694,-0.24905 1.74331,-0.0996 2.93872,-0.14943 z m 3.58624,-26.9964 c -0.0498,0.59771 -0.14943,1.19541 -0.14943,1.79312 0,5.82763 0.0498,11.65527 0.14943,17.4331 0.0498,2.39082 0,4.78165 0.29885,7.62075 2.34102,-0.34866 4.23375,-1.34484 5.97706,-2.2414 5.18012,-2.63987 7.3219,-7.67056 7.47133,-13.19934 0.19924,-7.3219 -6.27591,-12.70126 -13.74724,-11.40623 z"
         style="font-style:normal;font-variant:normal;font-weight:normal;font-stretch:normal;font-size:49.80885696px;font-family:'White Pine';-inkscape-font-specification:'White Pine';fill:#5b5d6e;fill-opacity:1;stroke-width:0.51884222px"
         id="path5130" />
    </g>
    <g
       transform="matrix(-1.174061,0,0,1.174061,462.09656,185.57363)"
       id="g5979-7-42-9">
      <path
         inkscape:connector-curvature="0"
         style="fill:#d7deed;stroke-width:0.26458332"
         d="m -330.55986,30.013301 h -46.71245 c -1.2909,0 -2.33574,-1.04589 -2.33574,-2.33574 0,-1.28984 1.04457,-2.33574 2.33574,-2.33574 h 46.71272 c 1.2909,0 2.33574,1.0459 2.33574,2.33574 0,1.28985 -1.04484,2.33574 -2.33601,2.33574 z"
         id="path5194-3-0-3-1" />
      <g
         transform="matrix(0.26458333,0,0,0.26458333,-379.60805,-33.048809)"
         id="g5204-1-5-0-3">
        <path
           id="path5198-9-1-9-3"
           d="M 317.793,238.345 H 220.69 c -4.879,0 -8.828,-3.953 -8.828,-8.828 0,-4.875 3.948,-8.828 8.828,-8.828 h 97.103 c 4.879,0 8.828,3.953 8.828,8.828 0,4.875 -3.948,8.828 -8.828,8.828 z"
           style="fill:#c7cfe2"
           inkscape:connector-curvature="0" />
        <path
           id="path5200-5-2-25-6"
           d="m 317.793,291.31 h -35.31 c -4.879,0 -8.828,-3.953 -8.828,-8.828 0,-4.875 3.948,-8.828 8.828,-8.828 h 35.31 c 4.879,0 8.828,3.953 8.828,8.828 0,4.875 -3.948,8.828 -8.828,8.828 z"
           style="fill:#c7cfe2"
           inkscape:connector-curvature="0" />
        <path
           id="path5202-8-6-5-8"
           d="M 79.448,291.31 H 8.828 C 3.949,291.31 0,287.357 0,282.482 c 0,-4.875 3.948,-8.828 8.828,-8.828 h 70.621 c 4.879,0 8.828,3.953 8.828,8.828 0,4.875 -3.949,8.828 -8.829,8.828 z"
           style="fill:#c7cfe2"
           inkscape:connector-curvature="0" />
      </g>
      <path
         inkscape:connector-curvature="0"
         style="fill:#d7deed;stroke-width:0.26458332"
         d="m -314.21046,44.026961 h -35.03427 c -1.2909,0 -2.33574,-1.0459 -2.33574,-2.33574 0,-1.28985 1.04457,-2.33574 2.33574,-2.33574 h 35.03454 c 1.2909,0 2.33574,1.04589 2.33574,2.33574 0,1.28984 -1.04484,2.33574 -2.33601,2.33574 z"
         id="path5206-0-1-7-7" />
    </g>
    <g
       aria-label="free"
       transform="rotate(-4.6468326)"
       style="font-style:normal;font-variant:normal;font-weight:normal;font-stretch:normal;font-size:41.18217087px;line-height:125%;font-family:Musket;-inkscape-font-specification:Musket;letter-spacing:16.5553875px;word-spacing:0px;fill:#212121;fill-opacity:1;stroke:#ffffff;stroke-width:8.65282249;stroke-linecap:butt;stroke-linejoin:round;stroke-miterlimit:3.9000001;stroke-dasharray:none;stroke-opacity:1;paint-order:stroke fill markers"
       id="text6192-5-8">
      <path
         d="m 424.18883,313.75448 c 2.66861,0.59302 5.0407,-0.19768 6.32558,1.8779 1.18605,1.68024 0.98838,3.36047 0.0988,4.25 -1.28488,1.28489 -2.17442,1.38372 -5.53488,1.28489 -3.75582,-0.0988 -7.51163,-0.0988 -11.16861,-0.0988 -3.36046,0.0988 -4.15116,-0.98837 -4.05233,-3.95349 0,-2.76744 3.45931,-2.86628 6.22675,-3.36046 0.88953,-18.18605 0.59302,-35.87792 -0.59302,-54.55815 -2.76745,0.19767 -8.10466,0.29651 -8.79652,-1.68023 -0.69186,-1.97675 0,-3.55814 1.68024,-4.54651 0.88953,-0.59303 2.27325,-0.7907 3.4593,-0.88954 5.73256,-0.0988 29.94768,-0.0988 37.55814,-0.0988 1.28489,0 3.36047,0.98838 3.75582,1.97675 1.18604,2.76744 1.77907,5.73256 2.27325,8.69767 0.0988,0.7907 -1.18604,2.3721 -2.07558,2.56977 -1.38372,0.19768 -3.26163,0 -4.34884,-0.7907 -1.18604,-0.98837 -1.68023,-2.86628 -2.86628,-4.84302 -7.11628,0 -14.82558,0 -23.12791,0 l 0.88954,22.53489 c 2.17442,0 4.05233,0.0988 5.93023,0 1.18605,-0.0988 10.77326,-0.49419 10.8721,2.86627 0.0988,4.05233 -4.15117,3.65698 -7.11628,3.55814 -2.96512,0 -5.8314,0.29652 -9.38954,0.0988 z"
         style="font-style:normal;font-variant:normal;font-weight:normal;font-stretch:normal;font-size:98.83721924px;font-family:'White Pine';-inkscape-font-specification:'White Pine';letter-spacing:16.5553875px;fill:#212121;fill-opacity:1;stroke:#ffffff;stroke-width:8.65282249;stroke-linejoin:round;stroke-miterlimit:3.9000001;stroke-dasharray:none;stroke-opacity:1;paint-order:stroke fill markers"
         id="path5121" />
      <path
         d="m 520.17073,308.91145 c 2.56977,2.86628 3.36047,4.15116 9.68605,4.25 2.17442,0 4.15116,1.97675 4.15116,4.05233 0,2.07558 -1.87791,3.65698 -4.44767,3.65698 l -8.5,0.29651 c -2.96512,0 -7.11628,-1.77907 -6.72093,-4.64535 0.29651,-2.56977 -0.88954,-4.05233 -2.47094,-5.63372 l -16.11046,-16.80233 c 0,6.02907 0.0988,13.73837 0.0988,19.66861 2.17441,0.29651 4.64534,0.79069 4.84302,2.86627 0.29651,3.06396 -2.17442,4.54652 -4.94186,4.54652 -3.26163,-0.0988 -6.42442,-0.19768 -9.68605,-0.19768 -2.47093,-0.0988 -4.34884,-1.28488 -4.54651,-3.75581 0,-1.87791 0.7907,-3.16279 3.06395,-3.4593 0.49419,-0.0988 2.17442,0 3.45931,0 0.29651,-8.50001 -0.0988,-45.26745 0.29651,-54.26164 h -4.94186 c -1.97675,0.0988 -3.1628,-0.7907 -3.36047,-2.76744 -0.19767,-1.87791 0.88954,-3.06395 2.76744,-3.26163 10.8721,-1.48256 23.72094,-2.56977 34.09884,1.5814 9.68605,3.85465 11.36628,16.90116 3.45931,24.31395 -2.47093,2.3721 -5.23838,4.34884 -8.20349,6.02907 -2.76745,1.5814 -5.93024,2.47093 -9.58721,3.95349 1.58139,1.87791 2.96511,3.65698 4.54651,5.23837 z m -24.51163,-27.0814 c 7.51163,-0.0988 15.02326,-1.48255 19.86628,-7.41279 3.26163,-4.05232 3.36047,-10.18023 -0.98837,-12.55232 -6.12791,-3.45931 -17.69186,-2.96512 -18.97675,-2.66861 z"
         style="font-style:normal;font-variant:normal;font-weight:normal;font-stretch:normal;font-size:98.83721924px;font-family:'White Pine';-inkscape-font-specification:'White Pine';letter-spacing:16.5553875px;fill:#212121;fill-opacity:1;stroke:#ffffff;stroke-width:8.65282249;stroke-linejoin:round;stroke-miterlimit:3.9000001;stroke-dasharray:none;stroke-opacity:1;paint-order:stroke fill markers"
         id="path5123" />
      <path
         d="m 561.891,312.96378 c 0.0988,-9.19186 0.39535,-17.98838 0.39535,-26.78489 0,-8.79651 -0.29651,-17 -0.39535,-25.99419 -0.39535,-0.0988 -2.27326,-0.29651 -2.76744,-0.49418 -1.77907,-0.49419 -3.1628,-1.08721 -3.26163,-3.16279 -0.19768,-2.27326 1.08721,-3.55814 3.26163,-3.85466 2.27325,-0.49418 6.02907,-0.59302 8.30232,-0.59302 11.16861,-0.0988 22.33721,0 33.50582,0 3.55814,0 5.33721,-0.29651 7.11628,1.48256 0.98837,1.08721 1.38372,2.76744 1.58139,4.05232 0,5.0407 -1.68023,9.58722 -4.94186,9.88373 -0.49418,0 -2.17442,-0.88954 -3.06395,-2.3721 -0.69186,-1.28488 -0.0988,-3.36046 -0.88954,-5.23837 -9.19186,-0.0988 -21.15116,0.29651 -30.93604,0.0988 0,8.5 -0.69187,14.72674 -0.0988,23.42442 2.37209,-0.0988 4.25,-0.0988 6.32558,-0.0988 1.5814,0 3.26163,-0.0988 4.74419,0.39535 1.08721,0.39535 2.76744,2.07558 2.56976,2.76744 -0.29651,1.28489 -1.68023,2.96512 -2.86627,3.16279 -2.56977,0.59303 -5.33721,0.39535 -8.10466,0.59303 -0.69186,0 -1.38372,0.19767 -2.6686,0.39535 0,7.7093 0,14.82558 0.0988,22.53488 10.87209,-0.49418 20.75581,0.49419 31.13372,0.0988 0.19767,-1.77907 0.0988,-3.65698 0.69186,-5.13954 0.49419,-1.08721 1.97674,-2.17441 3.06395,-2.37209 0.88954,-0.0988 2.96512,1.38372 3.26163,2.27326 0.88954,3.16279 3.16279,7.61046 0.59303,11.06977 -1.5814,2.07558 -3.65698,1.8779 -6.6221,1.8779 -8.89535,-0.0988 -31.23256,0.59303 -41.21512,-0.19767 -3.06395,-0.19768 -4.94186,-1.08721 -4.94186,-3.26163 0,-3.4593 2.86628,-4.15116 6.12791,-4.54651 z"
         style="font-style:normal;font-variant:normal;font-weight:normal;font-stretch:normal;font-size:98.83721924px;font-family:'White Pine';-inkscape-font-specification:'White Pine';letter-spacing:16.5553875px;fill:#212121;fill-opacity:1;stroke:#ffffff;stroke-width:8.65282249;stroke-linejoin:round;stroke-miterlimit:3.9000001;stroke-dasharray:none;stroke-opacity:1;paint-order:stroke fill markers"
         id="path5125" />
      <path
         d="m 637.7101,312.96378 c 0.0988,-9.19186 0.39535,-17.98838 0.39535,-26.78489 0,-8.79651 -0.29651,-17 -0.39535,-25.99419 -0.39534,-0.0988 -2.27325,-0.29651 -2.76744,-0.49418 -1.77907,-0.49419 -3.16279,-1.08721 -3.26163,-3.16279 -0.19767,-2.27326 1.08721,-3.55814 3.26163,-3.85466 2.27326,-0.49418 6.02907,-0.59302 8.30233,-0.59302 11.1686,-0.0988 22.33721,0 33.50582,0 3.55814,0 5.33721,-0.29651 7.11628,1.48256 0.98837,1.08721 1.38372,2.76744 1.58139,4.05232 0,5.0407 -1.68023,9.58722 -4.94186,9.88373 -0.49419,0 -2.17442,-0.88954 -3.06395,-2.3721 -0.69186,-1.28488 -0.0988,-3.36046 -0.88954,-5.23837 -9.19186,-0.0988 -21.15116,0.29651 -30.93605,0.0988 0,8.5 -0.69186,14.72674 -0.0988,23.42442 2.37209,-0.0988 4.25,-0.0988 6.32558,-0.0988 1.58139,0 3.26163,-0.0988 4.74418,0.39535 1.08721,0.39535 2.76745,2.07558 2.56977,2.76744 -0.29651,1.28489 -1.68023,2.96512 -2.86628,3.16279 -2.56977,0.59303 -5.33721,0.39535 -8.10465,0.59303 -0.69186,0 -1.38372,0.19767 -2.6686,0.39535 0,7.7093 0,14.82558 0.0988,22.53488 10.8721,-0.49418 20.75582,0.49419 31.13373,0.0988 0.19767,-1.77907 0.0988,-3.65698 0.69186,-5.13954 0.49418,-1.08721 1.97674,-2.17441 3.06395,-2.37209 0.88954,-0.0988 2.96512,1.38372 3.26163,2.27326 0.88953,3.16279 3.16279,7.61046 0.59302,11.06977 -1.58139,2.07558 -3.65697,1.8779 -6.62209,1.8779 -8.89535,-0.0988 -31.23256,0.59303 -41.21512,-0.19767 -3.06396,-0.19768 -4.94186,-1.08721 -4.94186,-3.26163 0,-3.4593 2.86628,-4.15116 6.1279,-4.54651 z"
         style="font-style:normal;font-variant:normal;font-weight:normal;font-stretch:normal;font-size:98.83721924px;font-family:'White Pine';-inkscape-font-specification:'White Pine';letter-spacing:16.5553875px;fill:#212121;fill-opacity:1;stroke:#ffffff;stroke-width:8.65282249;stroke-linejoin:round;stroke-miterlimit:3.9000001;stroke-dasharray:none;stroke-opacity:1;paint-order:stroke fill markers"
         id="path5127" />
    </g>
  </g>
</svg>
